<?xml version="1.0" encoding="utf-8"?>
<!-- Generator: Adobe Illustrator 20.0.0, SVG Export Plug-In . SVG Version: 6.00 Build 0)  -->
<svg version="1.1" id="Layer_1" xmlns="http://www.w3.org/2000/svg" xmlns:xlink="http://www.w3.org/1999/xlink" x="0px" y="0px"
	 viewBox="0 0 550.3 109.8" style="enable-background:new 0 0 550.3 109.8;" xml:space="preserve">
<style type="text/css">
	.st0{fill:#7A9C49;}
	.st1{fill:#646569;}
</style>
<g>
	<g>
		<g>
			<path class="st0" d="M86,45.6c-4.7,0-7.2,2.5-8.7,5.7v37.5c0,1.1-0.1,1.3-0.8,1.3c-6.3,0-11.7,0-18.4,0c-0.8,0-0.9,0-0.9-1.7
				c0-21.8,0-34.9,0-56.8c0-1.4,0-1.4,0.8-1.4c6.4,0,11.1,0,17.4,0c0.8,0,1.3,0.7,1.3,1.9v7.7c2.4-7,9.4-11.4,18.5-11.4
				c12.3,0,18.4,6.8,18.4,19.6v40.3c0,1.7-0.2,1.8-1.2,1.8c-6.5,0-11.1,0-17.9,0c-0.8,0-1.1,0-1.1-1.3V53.5
				C93.4,48.1,90,45.6,86,45.6z"/>
			<path class="st0" d="M147.1,54.3c0,0,11-15.4,16.2-23.1c0.2-0.5,0.4-0.9,1.4-0.9c6.8,0,14.5,0,20.5,0c1.4,0,0.8,1.4,0.4,2.1
				c-5.8,7.1-19,23.2-19,23.2s14.4,22.2,21.6,33.1c0.6,1.1,0.2,1.4-1.1,1.4c-9.6,0-14,0-21.6,0c-0.8,0-1.2-0.4-2-1.7l-10.1-17.6
				l-6.4,8.1v9.8c0,1.1-0.2,1.3-0.9,1.3c-6.2,0-11.7,0-18.3,0c-0.8,0-0.9,0-0.9-1.7c0-21.8,0-57.1,0-78.9c0-1.4,0-1.5,0.8-1.5
				c6.4,0,12.1,0,18.3,0c0.8,0,1.1,0.1,1.1,1.5V54.3z"/>
			<path class="st0" d="M234.9,9.6c0-1.3,0.1-1.5,0.9-1.5c6.9,0,10.4,0,17.8,0c0.8,0,0.9,0,0.9,1.7c0,21.8,0,56.8,0,78.6
				c0,1.4-0.4,1.9-1.3,1.9c-7.1,0-9.5,0-16.5,0c-1.1,0-1.3-0.5-1.3-1.9V85c-3.1,4.3-9.1,6-15.2,6c-17.4,0-28.6-11.1-28.6-30.8
				c0-19,11.9-30.6,28-30.6c5.8,0,12.2,2.4,15.2,6v-26H234.9z M223.4,48c-6.5,0-12,4.7-12,12.3c0,7.4,5.2,12.6,12.3,12.6
				c6.5,0,11.6-4.9,11.6-12.5C235.4,52.8,230,48,223.4,48z"/>
		</g>
		<g>
			<path class="st1" d="M288.5,108.3c0,1.3-0.1,1.5-0.9,1.5c-6.5,0-11.3,0-18.4,0c-0.7,0-0.8,0-0.8-1.7c0-21.8,0-54.6,0-76.5
				c0-1.4,0-1.4,0.8-1.4c6.8,0,10.7,0,17.3,0c0.8,0,0.9,0,0.9,1.4v5.7c1.8-5.3,10-8.2,16.4-8.2c14.6,0,28.2,9.1,28.2,30.8
				c0,21.5-12.5,31.9-29.2,31.2c-5.9-0.2-12.3-3.2-14.4-7v24.2H288.5z M288.5,60.5c0,8.1,6,12.6,12.3,12.6c6,0,11.5-4.9,11.5-12.6
				s-5.6-12.6-11.9-12.6C293.4,47.9,288.5,53.1,288.5,60.5z"/>
			<path class="st1" d="M363.1,22.2c0,1.1-0.2,1.3-1.1,1.3c-6.6,0-11.3,0-18.1,0c-0.8,0-1-0.8-1-1.5V9.6c0-0.7,0-1.5,0.8-1.5
				c6,0,12.9,0,18.1,0c0.9,0,1.2,0.1,1.2,1.5v12.6H363.1z M363.1,88.8c0,1.1-0.2,1.3-1.1,1.3c-6.5,0-11.3,0-18.1,0c-0.8,0-1,0-1-1.7
				c0-21.8,0-34.9,0-56.8c0-1.4,0-1.4,0.8-1.4c6.8,0,11.5,0,18.1,0c0.9,0,1.2,0,1.2,1.4v57.2H363.1z"/>
			<path class="st1" d="M396.1,44.8c0,0-13.4,0.4-19.2,0.5c-1.2,0-1.5-0.2-1.5-1.1V31.4c0-0.8,0.4-1.2,1.1-1.2c16.7,0,31.2,0,48.2,0
				c0.9,0,1.8,0.2,0.7,2c-7.8,13.2-25.1,42.3-25.1,42.3s15.1-0.4,22.3-0.4c1.5,0,1.7,0.2,1.7,1.3v13.5c0,0.8-0.1,1.1-1.7,1.1
				c-17.3,0-38.1,0-49.6,0c-1.4,0-1.7-0.6-0.9-1.9C382.1,69.5,396.1,44.8,396.1,44.8z"/>
			<path class="st1" d="M453.4,44.8c0,0-13.4,0.4-19.2,0.5c-1.2,0-1.5-0.2-1.5-1.1V31.4c0-0.8,0.4-1.2,1.1-1.2c16.7,0,31.2,0,48.2,0
				c0.9,0,1.8,0.2,0.7,2c-7.8,13.2-25.1,42.3-25.1,42.3s15.1-0.4,22.3-0.4c1.5,0,1.7,0.2,1.7,1.3v13.5c0,0.8-0.1,1.1-1.7,1.1
				c-17.3,0-38.1,0-49.6,0c-1.4,0-1.7-0.6-0.9-1.9C439.4,69.5,453.4,44.8,453.4,44.8z"/>
			<path class="st1" d="M531.4,81.6c-2,6.2-9.5,9.4-16.7,9.4c-15.9,0-28-11.4-28-30.8c0-17.9,12.6-30.6,27.6-30.6
				c8.1,0,14.2,4.7,16,9.4v-7.2c0-1.1,0.2-1.4,0.9-1.4c6.8,0,11.5,0,18.3,0c0.6,0,0.8,0.5,0.8,1.1c0,22.8,0,35.3,0,57.2
				c0,1.3-0.4,1.7-0.9,1.7c-3.2,0-14.9,0-16.8,0c-0.8,0-1.2-0.5-1.2-1.1L531.4,81.6L531.4,81.6z M506.4,60.7
				c0,7.2,5.5,12.2,12.1,12.2c6.5,0,11.9-5,11.9-12.5c0-7.8-5.3-12.5-11.9-12.5C511,48,506.4,53.4,506.4,60.7z"/>
		</g>
		<g>
			<path class="st1" d="M57.1,8C48.8,2.9,39,0,28.6,0S8.4,2.9,0.1,8l28.5,48L57.1,8z"/>
		</g>
	</g>
</g>
</svg>
