<?xml version="1.0" standalone="no"?>
<!DOCTYPE svg PUBLIC "-//W3C//DTD SVG 1.1//EN" "http://www.w3.org/Graphics/SVG/1.1/DTD/svg11.dtd" >
<svg xmlns="http://www.w3.org/2000/svg">
<metadata>Generated by IcoMoon</metadata>
<defs>
<font id="icomoon" horiz-adv-x="1024">
<font-face units-per-em="1024" ascent="960" descent="-64" />
<missing-glyph horiz-adv-x="1024" />
<glyph unicode="&#x20;" horiz-adv-x="512" d="" />
<glyph unicode="&#xe5cd;" glyph-name="close" d="M810 664.667l-238-238 238-238-60-60-238 238-238-238-60 60 238 238-238 238 60 60 238-238 238 238z" />
<glyph unicode="&#xe900;" glyph-name="pizza-icon" d="M73.143 740.571c0 0 438.857 512 877.714 0l-438.857-731.429-438.857 731.429z" />
<glyph unicode="&#xe901;" glyph-name="directions" horiz-adv-x="934" d="M89.558 934.196c12.795-12.795 25.589-19.192 44.781-31.987 44.781-31.987 89.562-70.371 134.344-108.754 70.371-63.973 127.946-127.946 159.933-185.522 38.384-57.576 57.576-108.754 57.576-159.933v-447.812h-127.946v447.812c0 25.589-12.795 51.179-31.987 89.562-31.987 51.179-83.165 102.357-140.741 159.933-44.781 38.384-83.165 70.371-127.946 102.357-12.795 12.795-31.987 25.589-44.781 31.987-6.397 6.397-12.795 6.397-12.795 12.795l70.371 108.754c6.397-6.397 12.795-12.795 19.192-19.192zM722.892 851.031l-108.754 108.754h319.866v-319.866l-121.549 121.549c-6.397-6.397-19.192-12.795-31.987-19.192-44.781-31.987-89.562-70.371-127.946-102.357-57.576-63.973-108.754-115.152-134.344-166.33-25.589-38.384-31.987-63.973-31.987-89.562v-447.812h-127.946v447.812c0 51.179 19.192 102.357 51.179 153.536 38.384 63.973 89.562 121.549 159.933 185.522 44.781 44.781 89.562 83.165 134.344 115.152 6.397 6.397 12.795 6.397 19.192 12.795z" />
<glyph unicode="&#xe902;" glyph-name="phone" horiz-adv-x="1022" d="M1003.284 168.166l-175.95 175.95c-11.231 11.231-24.334 16.846-39.308 16.846l-37.436 1.871h-1.871c-14.975 0-29.949-5.615-41.18-16.846l-63.641-63.641c-1.871-5.615-7.487-7.487-14.975-7.487l-29.949 5.615c-3.744 0-7.487 1.871-11.231 5.615l-230.232 230.232c-3.744 3.744-5.615 7.487-5.615 11.231l-3.744 31.821c-1.871 7.487 0 11.231 5.615 16.846 13.103 13.103 33.692 33.692 63.641 63.641 11.231 11.231 16.846 26.205 16.846 43.051l-1.871 37.436c0 14.975-5.615 28.077-16.846 39.308l-175.95 170.335c-11.231 11.231-24.334 16.846-39.308 16.846l-35.565 1.871h-1.871c-16.846 0-29.949-5.615-41.18-16.846l-73-73c-48.667-48.667-39.308-149.745 28.077-288.258 56.154-116.052 144.129-243.335 232.105-329.438l5.615-5.615c138.514-138.514 385.592-288.258 529.722-288.258 37.436 0 67.385 11.231 87.975 29.949l73 73c11.231 11.231 16.846 26.205 16.846 43.051l-1.871 37.436c0 13.103-5.615 26.205-16.846 37.436zM162.841 911.274v0l37.436-1.871c5.615 0 9.359-1.871 13.103-5.615l175.95-175.95c3.744-3.744 5.615-7.487 5.615-13.103l1.871-37.436c0-5.615-1.871-11.231-5.615-14.975-7.487-7.487-13.103-13.103-18.718-18.718l-243.335 243.335 18.718 18.718c3.744 3.744 9.359 5.615 14.975 5.615zM905.949 3.448c-13.103-13.103-33.692-20.59-61.77-20.59-132.899 0-372.49 146.001-503.516 277.027l-5.615 5.615c-84.231 84.231-170.335 207.771-224.617 320.079-58.026 119.796-69.257 211.515-35.565 247.078l26.205 26.205 241.463-241.463c-7.487-7.487-13.103-13.103-16.846-16.846-13.103-13.103-18.718-29.949-16.846-48.667l3.744-31.821c1.871-13.103 7.487-24.334 16.846-31.821l228.361-228.361c9.359-9.359 20.59-14.975 31.821-16.846l31.821-3.744c18.718-1.871 35.565 3.744 48.667 16.846l18.718 16.846 241.463-241.463-24.334-28.077zM977.078 76.448l-18.718-18.718-241.463 241.463 18.718 18.718c3.744 3.744 7.487 5.615 14.975 5.615v0l37.436-1.871c5.615 0 9.359-1.871 13.103-5.615l175.95-175.95c3.744-3.744 5.615-7.487 5.615-13.103l1.871-37.436c0-5.615-1.871-9.359-7.487-13.103z" />
<glyph unicode="&#xe903;" glyph-name="search" horiz-adv-x="819" d="M321.918 857.974c-177.055 0-321.919-144.864-321.919-321.919s144.864-321.919 321.919-321.919c68.171 0 131.608 21.777 183.683 57.756l211.141-212.088c21.777-21.777 58.702-21.777 80.48 0s21.777 58.702 0 80.48l-212.088 211.141c36.926 52.075 57.756 115.512 57.756 183.683 0.947 178.003-143.916 322.865-320.972 322.865zM321.918 744.356c115.512 0 208.3-92.789 208.3-208.3s-92.789-208.3-208.3-208.3c-115.512 0-208.3 92.789-208.3 208.3 0 116.459 92.789 208.3 208.3 208.3z" />
<glyph unicode="&#xe904;" glyph-name="time" d="M512 960c-281.6 0-512-230.4-512-512s230.4-512 512-512 512 230.4 512 512-230.4 512-512 512zM512 850.286c223.086 0 402.286-179.2 402.286-402.286s-179.2-402.286-402.286-402.286-402.286 179.2-402.286 402.286 179.2 402.286 402.286 402.286zM512 777.143c-31.086 0-54.857-23.771-54.857-54.857v-274.286c0-20.114 10.971-38.4 27.429-47.543l206.629-118.857c25.6-14.629 60.343-5.486 74.971 20.114s5.486 60.343-20.114 74.971l-179.2 102.4v243.2c0 31.086-23.771 54.857-54.857 54.857z" />
<glyph unicode="&#xe905;" glyph-name="close2" horiz-adv-x="819" d="M410.236 857.5c-226.438 0-408.765-183.797-408.765-408.765-1.471-226.438 182.327-410.236 408.765-410.236 224.968 0 408.765 183.797 408.765 408.765 0 226.438-183.797 410.236-408.765 410.236zM410.236 88.492c-198.501 0-360.243 161.742-360.243 360.243s161.742 360.243 360.243 360.243 360.243-161.742 360.243-360.243-161.742-360.243-360.243-360.243zM601.387 639.884c-10.293 10.293-24.996 10.293-35.289 0l-155.86-157.33-155.86 157.33c-10.293 10.293-24.996 10.293-35.289 0s-10.293-24.996 0-35.289l155.86-155.86-155.86-157.33c-10.293-10.293-10.293-24.996 0-35.289 4.41-4.41 11.764-7.352 17.645-7.352s13.233 2.941 17.645 7.352l155.86 157.33 155.86-155.86c4.41-4.41 11.764-7.352 17.645-7.352s13.233 2.941 17.645 7.352c10.293 10.293 10.293 24.996 0 35.289l-155.86 155.86 155.86 155.86c8.822 8.822 8.822 24.996 0 35.289z" />
<glyph unicode="&#xe906;" glyph-name="eclub" horiz-adv-x="1032" d="M1005.545 126.427l-357.502 357.502v5.389c64.673 161.684-14.372 343.13-176.056 407.804-159.888 62.877-343.13-14.372-407.804-176.056-62.877-161.684 14.372-343.13 176.056-407.804 79.046-30.541 167.074-30.541 244.323 5.389l3.593-1.796 16.168-16.168c8.982-8.982 17.965-14.372 28.744-16.168l25.151-5.389 3.593-1.796 14.372-41.32c3.593-7.186 7.186-14.372 12.575-21.557l55.691-55.691c5.389-5.389 10.779-8.982 17.965-12.575l62.877-28.744 1.796-1.796 28.744-62.877c3.593-7.186 7.186-12.575 12.575-17.965l73.656-73.656c10.779-10.779 23.354-16.168 37.727-17.965l86.232-7.186h5.389c32.337 0 59.284 26.948 59.284 61.081 0 1.796 0 1.796 0 3.593l-7.186 86.232c-1.796 16.168-7.186 28.744-17.965 39.523zM973.208-4.716l-3.593-1.796-86.232 7.186-77.249 77.249-26.948 62.877c-5.389 14.372-16.168 25.151-30.541 30.541l-62.877 28.744-55.691 55.691-16.168 41.32c-7.186 19.761-23.354 32.337-43.116 37.727l-25.151 5.389-1.796 1.796-16.168 14.372c-10.779 10.779-26.948 17.965-43.116 17.965-8.982 0-16.168-1.796-23.354-5.389-97.011-43.116-211.986-21.557-287.439 53.895-100.604 100.604-100.604 264.084 0 364.688s264.084 100.604 364.688 0c73.656-73.656 95.214-181.446 57.488-278.456-8.982-23.354-5.389-48.505 12.575-66.47l359.299-357.502v-1.796l7.186-86.232-1.796-1.796zM175.565 774.961c-39.523-39.523-39.523-102.4 0-141.923s102.4-39.523 141.923 0c39.523 39.523 39.523 102.4 0 141.923s-102.4 39.523-141.923 0c0 1.796 0 1.796 0 0zM277.965 674.358c-17.965-17.965-44.912-17.965-62.877 0-8.982 8.982-12.575 19.761-12.575 30.541 0 25.151 19.761 44.912 43.116 44.912 25.151 0 44.912-19.761 44.912-43.116 0-12.575-5.389-25.151-12.575-32.337z" />
<glyph unicode="&#xe907;" glyph-name="locations" horiz-adv-x="999" d="M222.547 304.579l262.115-262.115c4.946-4.946 14.837-9.891 19.782-9.891s14.837 4.946 19.782 9.891l262.115 262.115c29.673 29.673 54.402 69.238 69.238 108.802 19.782 49.456 34.619 103.857 34.619 158.258-4.946 212.66-178.040 385.755-390.701 385.755s-385.755-173.096-385.755-385.755c0-54.402 9.891-108.802 34.619-158.258 19.782-39.565 39.565-74.184 74.184-108.802zM499.499 902.993c182.986 0 331.354-148.367 331.354-331.354 0-44.51-9.891-93.966-29.673-133.531-14.837-34.619-34.619-64.292-59.346-89.021l-242.333-247.279-242.333 242.333c-24.728 29.673-44.51 59.346-59.346 93.966-19.782 39.565-29.673 84.075-29.673 133.531 0 182.986 148.367 331.354 331.354 331.354zM994.058-26.775l-84.075 276.952-54.402-14.837 74.184-242.333h-860.53l74.184 242.333-54.402 14.837-84.075-276.952c-4.946-9.891 0-19.782 4.946-24.728s14.837-9.891 19.782-9.891h939.66c9.891 0 14.837 4.946 19.782 9.891 9.891 4.946 9.891 14.837 4.946 24.728zM499.499 408.435c89.021 0 163.204 74.184 163.204 163.204s-69.238 163.204-163.204 163.204-163.204-74.184-163.204-163.204 74.184-163.204 163.204-163.204zM499.499 680.442c59.346 0 108.802-49.456 108.802-108.802s-44.51-108.802-108.802-108.802-108.802 49.456-108.802 108.802 49.456 108.802 108.802 108.802z" />
<glyph unicode="&#xe908;" glyph-name="play" d="M512 856.682c225.004 0 408.682-183.677 408.682-408.682s-183.677-408.682-408.682-408.682c-225.004 0-408.682 183.677-408.682 408.682s183.677 408.682 408.682 408.682zM512 960c-282.404 0-512-229.596-512-512s229.596-512 512-512c282.404 0 512 229.596 512 512s-229.596 512-512 512zM424.753 678.744c-14.924 11.48-27.552 5.74-27.552-13.776v-429.345c0-18.368 12.628-25.256 27.552-13.776l268.628 206.637c14.924 11.48 14.924 30.996 0 42.475l-268.628 207.785z" />
<glyph unicode="&#xe909;" glyph-name="keyboard_arrow_up" d="M316 280.667l-60 60 256 256 256-256-60-60-196 196z" />
<glyph unicode="&#xe90a;" glyph-name="keyboard_arrow_right" d="M366 240.667l196 196-196 196 60 60 256-256-256-256z" />
<glyph unicode="&#xe90b;" glyph-name="keyboard_arrow_left" d="M658 252.667l-60-60-256 256 256 256 60-60-196-196z" />
<glyph unicode="&#xe90c;" glyph-name="keyboard_arrow_down" d="M316 604.667l196-196 196 196 60-60-256-256-256 256z" />
<glyph unicode="&#xe90d;" glyph-name="favorite" d="M736 896c-76.928 0-138.592-27.616-192.96-82.016-0.032-0.032-0.064-0.064-0.096-0.096h-0.032l-30.912-38.944-30.912 36.576c-0.032 0.032-0.064 0.064-0.096 0.096h-0.032c-54.4 54.432-116.032 84.384-192.96 84.384s-149.248-29.952-203.648-84.352c-54.368-54.4-84.352-126.72-84.352-203.648 0-76.864 29.92-149.184 84.256-203.552l382.304-385.504c12-12.128 28.384-18.944 45.44-18.944s33.44 6.816 45.44 18.944l382.272 385.504c54.336 54.368 84.288 126.656 84.288 203.552 0 76.928-29.984 149.248-84.352 203.648-54.4 54.4-126.72 84.352-203.648 84.352v0z" />
<glyph unicode="&#xe90e;" glyph-name="pizza" d="M735.399 947.775l-30.093-77.113c120.999-47.229 212.114-154.436 236.565-285.257l82.129 15.464c-30.093 159.033-140.643 289.855-288.601 346.906zM690.051 831.582l-123.507-317.858 334.785 63.321c-21.943 114.73-102.4 212.114-211.278 254.537zM752.536 599.824c-39.915 0-72.307 32.601-72.307 72.307s32.601 72.307 72.307 72.307c39.915 0 72.307-32.601 72.307-72.307s-33.228-72.307-72.307-72.307zM924.108 500.767l-61.858-11.285c4.807-25.287 7.314-50.364 7.314-75.651 0-222.772-181.185-403.122-403.122-403.122s-403.958 181.185-403.958 403.122 181.394 403.122 403.122 403.122c50.364 0 99.892-8.986 146.286-27.585l22.779 58.514c-52.872 20.271-109.714 31.765-169.064 31.765-256.836-0.209-465.607-208.353-465.607-465.816s208.771-465.607 465.607-465.607 465.607 208.771 465.607 465.607c1.045 30.093-2.299 58.514-7.105 86.936zM821.499 481.75l-355.683-67.291 129.985 333.949c0 0-51.409 27.585-130.821 27.585-199.158 0-361.744-162.586-361.744-361.744s162.586-361.326 361.535-361.326 361.744 162.586 361.744 361.744c3.344 21.107-5.016 67.082-5.016 67.082zM323.5 681.117c12.121 4.807 24.451 8.15 36.571 9.822 11.285 1.672 21.943-6.478 23.615-17.136 1.672-11.285-6.478-21.943-17.136-23.615-8.986-1.672-18.599-3.971-26.749-7.314-13.793-5.851-23.615 3.344-26.749 11.285-5.016 10.658-0.209 22.988 10.449 26.958zM258.508 596.689c9.822 0.836 19.435-2.508 26.749-8.15 8.986-6.478 10.658-19.435 3.971-29.257-3.971-5.642-14.629-12.748-28.421-3.971-11.285-0.836-21.107 8.15-21.943 19.435s8.15 21.107 19.644 21.943zM190.171 360.124c-8.986 6.478-11.285 19.435-3.971 29.257 6.478 8.986 19.435 11.285 29.257 3.971l24.451-17.972c8.986-6.478 11.285-19.435 3.971-29.257-3.971-5.642-15.047-12.957-28.421-3.971l-25.287 17.972zM256 188.552c-3.971-3.971-17.972-10.867-29.257 0l-9.822 9.822c-8.15 8.15-8.15 21.107 0 29.257s21.107 8.15 29.257 0l9.822-9.822c8.15-7.941 8.15-21.107 0-29.257zM247.85 461.688c0 34.064 27.585 61.858 61.858 61.858s61.858-27.585 61.858-61.858-27.585-61.858-61.858-61.858-61.858 27.794-61.858 61.858zM324.336 260.232c-3.971-3.971-17.763-11.076-29.257 0.836l-15.464 15.464c-8.15 8.15-8.15 21.107 0 29.257s21.107 8.15 29.257 0l15.464-15.464c8.15-8.986 8.15-21.943 0-30.093zM426.736 114.782c-3.344-8.986-11.703-16.3-25.913-12.957l-34.064 11.285c-10.658 3.344-16.3 15.464-12.957 25.913 3.344 10.658 15.464 16.3 25.913 12.957l34.064-11.285c10.449-3.344 16.091-14.629 12.957-25.913zM451.814 324.389c-3.971-6.478-13.584-14.629-27.585-8.15-11.285 6.478-21.943 14.629-30.929 25.287-7.314 8.986-6.478 21.943 1.672 29.257 8.986 7.314 21.943 6.478 29.257-1.672 5.642-6.478 12.121-12.121 19.435-16.3 9.822-6.478 13.793-18.599 8.15-28.421zM450.978 542.981c-3.762-2.508-15.464-11.285-29.257 2.508-8.986 8.986-14.629 19.435-20.271 30.929-4.807 10.658-0.836 22.779 9.822 27.585s22.779 0.836 27.585-9.822c3.971-8.15 8.986-15.464 14.629-21.943 7.314-8.986 5.642-21.943-2.508-29.257zM456.829 698.253c-1.672 11.285 5.642 21.943 17.136 23.615 14.629 2.508 30.093-3.344 39.915-14.629 7.314-8.986 6.478-21.943-2.508-29.257-16.718-12.748-30.929 3.344-30.929 3.344-11.494-2.717-22.152 5.433-23.615 16.927zM529.972 150.518c-34.9 0-63.321 28.421-63.321 63.321s28.421 63.321 63.321 63.321 63.321-28.421 63.321-63.321-28.421-63.321-63.321-63.321zM619.207 306.416c-10.867-2.717-17.972 2.508-21.943 8.15-8.15 3.344-12.957 11.285-12.957 20.271 0.836 11.285 10.658 20.271 21.943 19.435 13.793-0.836 25.287-10.658 28.421-23.615 2.508-10.449-4.807-20.898-15.464-24.242zM743.549 290.952l-9.822-15.464c-9.822-14.629-25.287-8.986-28.421-6.478-9.822 5.642-12.957 18.599-6.478 28.421l9.822 15.464c5.642 9.822 18.599 12.957 28.421 6.478 9.822-5.642 12.957-18.599 6.478-28.421zM751.7 405.682c-2.508-9.822-10.658-15.464-20.271-15.464-1.672 0-3.344 0-4.807 0.836-5.642 1.672-10.658 1.672-16.3 1.672-11.285-1.672-21.107 6.478-21.943 17.972-0.836 11.285 7.314 21.107 18.599 21.943 9.822 0.836 19.435 0 29.257-2.508 11.494-2.508 18.808-14.002 15.464-24.451z" />
<glyph unicode="&#xe90f;" glyph-name="pizza-slice-cut" d="M427.423 100.085c-191.813 0-347.94 156.026-347.94 347.889s156.076 347.991 347.94 347.991c95.907 0 182.942-39.032 245.9-102.040l56.165 56.114c-77.404 77.404-184.209 125.358-302.065 125.358-235.711 0-427.423-191.712-427.423-427.423 0-235.66 191.661-427.372 427.423-427.372 216.195 0 395.386 161.449 423.418 370.092l-78.773 10.645c-22.811-169.813-168.698-301.254-344.645-301.254zM499.758 526.748c-15.866 0-28.691 12.825-28.691 28.64 0 15.866 12.825 28.742 28.691 28.742s28.742-12.825 28.742-28.742c0-2.585-0.558-4.968-1.166-7.35l96.718 96.667c-50.336 50.386-119.883 81.51-196.73 81.51-153.694 0-278.19-124.547-278.19-278.24 0-153.643 124.496-278.19 278.19-278.19 140.97 0 257.153 104.98 275.402 240.932l-275.402 37.258 79.686 79.686c-2.281-0.507-4.613-0.912-7.249-0.912zM316.056 403.57c-28.539 0-51.654 23.166-51.654 51.654 0 28.589 23.115 51.654 51.654 51.654s51.654-23.064 51.654-51.654c0.051-28.539-23.115-51.654-51.654-51.654zM349.41 555.439c-18.401 0-33.304 14.954-33.304 33.354s14.954 33.304 33.304 33.304 33.354-14.954 33.354-33.304c0-18.401-14.954-33.354-33.354-33.354zM479.026 359.824c17.539 0 31.834-14.244 31.834-31.834 0-17.488-14.244-31.783-31.834-31.783s-31.834 14.244-31.834 31.783c0 17.59 14.244 31.834 31.834 31.834zM800.505 741.067l-113.293-104.676c9.124-7.147 15.156-18.198 15.156-30.769 0-21.594-17.488-39.184-39.184-39.184-13.636 0-25.649 7.046-32.645 17.59l-106.552-98.39 76.137-11.71c-3.599 5.576-5.931 12.216-5.931 19.364 0 19.060 15.461 34.47 34.52 34.47s34.52-15.41 34.52-34.47c0-11-5.221-20.682-13.332-27.018l103.764-15.968c-0.253 1.571-0.558 3.143-0.558 4.866 0 15.309 12.419 27.88 27.88 27.88 15.309 0 27.829-12.521 27.829-27.88 0-4.714-1.267-9.074-3.295-12.926l97.174-14.954c0.051 0 29.248 198.758-102.192 313.775zM527.385 548.089l-20.276-20.327c9.885 2.636 17.64 10.392 20.276 20.327zM886.679 814.417l-52.363-52.972c87.188-73.958 132.911-191.864 109.086-311.798-1.318-6.691-2.839-13.129-4.511-19.617l73.4-12.977c1.521 6.032 2.839 12.064 4.005 18.097 28.894 145.279-25.345 288.176-129.616 379.267z" />
<glyph unicode="&#xea50;" glyph-name="ctrl" d="M960.010 767.989c-17.815 0-35.539-7.396-48.19-21.855l-399.82-456.937-399.82 456.937c-23.271 26.599-63.709 29.299-90.304 6.020-26.599-23.275-29.295-63.705-6.020-90.304l447.982-511.979c12.151-13.887 29.707-21.855 48.162-21.855s36.011 7.968 48.162 21.855l447.982 511.979c23.275 26.599 20.583 67.029-6.020 90.304-12.14 10.624-27.163 15.835-42.114 15.835z" />
<glyph unicode="&#xea90;" glyph-name="facebook" d="M607.985 767.986h159.994v191.992h-159.994c-123.508 0-223.99-100.482-223.99-223.99v-95.996h-127.994v-191.992h127.994v-511.978h191.992v511.978h159.994l31.998 191.992h-191.992v95.996c0 17.346 14.654 31.998 31.998 31.998z" />
<glyph unicode="&#xea92;" glyph-name="instagram" d="M512.295 867.785c136.823 0 153.025-0.6 206.834-3 50.008-2.2 77.013-10.602 95.016-17.603 23.804-9.202 41.007-20.403 58.81-38.206 18.003-18.003 29.005-35.006 38.406-58.81 7.001-18.003 15.403-45.207 17.603-95.016 2.4-54.009 3-70.212 3-206.834s-0.6-153.025-3-206.834c-2.2-50.008-10.602-77.013-17.603-95.016-9.202-23.804-20.403-41.007-38.206-58.81-18.003-18.003-35.006-29.005-58.81-38.406-18.003-7.001-45.207-15.403-95.016-17.603-54.009-2.4-70.212-3-206.834-3s-153.025 0.6-206.834 3c-50.008 2.2-77.013 10.602-95.016 17.603-23.804 9.202-41.007 20.403-58.81 38.206-18.003 18.003-29.005 35.006-38.406 58.81-7.001 18.003-15.403 45.207-17.603 95.016-2.4 54.009-3 70.212-3 206.834s0.6 153.025 3 206.834c2.2 50.008 10.602 77.013 17.603 95.016 9.202 23.804 20.403 41.007 38.206 58.81 18.003 18.003 35.006 29.005 58.81 38.406 18.003 7.001 45.207 15.403 95.016 17.603 53.809 2.4 70.012 3 206.834 3zM512.295 960c-139.023 0-156.426-0.6-211.035-3-54.409-2.4-91.815-11.202-124.22-23.804-33.806-13.202-62.41-30.605-90.815-59.21-28.605-28.405-46.008-57.009-59.21-90.615-12.602-32.605-21.404-69.812-23.804-124.22-2.4-54.809-3-72.212-3-211.235s0.6-156.426 3-211.035c2.4-54.409 11.202-91.815 23.804-124.22 13.202-33.806 30.605-62.41 59.21-90.815 28.405-28.405 57.009-46.008 90.615-59.010 32.605-12.602 69.812-21.404 124.22-23.804 54.609-2.4 72.012-3 211.035-3s156.426 0.6 211.035 3c54.409 2.4 91.815 11.202 124.22 23.804 33.606 13.002 62.21 30.605 90.615 59.010s46.008 57.009 59.010 90.615c12.602 32.605 21.404 69.812 23.804 124.22 2.4 54.609 3 72.012 3 211.035s-0.6 156.426-3 211.035c-2.4 54.409-11.202 91.815-23.804 124.22-12.602 34.006-30.005 62.61-58.61 91.015-28.405 28.405-57.009 46.008-90.615 59.010-32.605 12.602-69.812 21.404-124.22 23.804-54.809 2.6-72.212 3.201-211.235 3.201v0zM512.295 710.959c-145.224 0-263.043-117.819-263.043-263.043s117.819-263.043 263.043-263.043 263.043 117.819 263.043 263.043c0 145.224-117.819 263.043-263.043 263.043zM512.295 277.288c-94.216 0-170.628 76.413-170.628 170.628s76.413 170.628 170.628 170.628c94.216 0 170.628-76.413 170.628-170.628s-76.413-170.628-170.628-170.628zM847.15 721.361c0-33.916-27.495-61.41-61.41-61.41s-61.41 27.495-61.41 61.41c0 33.916 27.495 61.41 61.41 61.41s61.41-27.495 61.41-61.41z" />
<glyph unicode="&#xea96;" glyph-name="twitter" d="M1023.968 765.532c-37.591-16.796-78.182-27.994-120.573-32.993 43.39 25.994 76.583 67.185 92.379 116.174-40.591-23.995-85.581-41.591-133.37-50.988-38.391 40.791-92.979 66.185-153.365 66.185-115.974 0-209.952-93.979-209.952-209.952 0-16.396 1.8-32.393 5.399-47.789-174.56 8.798-329.325 92.379-432.902 219.55-17.996-30.993-28.394-67.185-28.394-105.576 0-72.784 36.992-137.169 93.379-174.76-34.392 1-66.785 10.598-95.178 26.194 0-0.8 0-1.8 0-2.599 0-101.777 72.384-186.758 168.562-205.953-17.596-4.799-36.192-7.398-55.387-7.398-13.597 0-26.594 1.4-39.591 3.799 26.794-83.381 104.376-144.167 196.156-145.967-71.984-56.387-162.363-89.98-260.941-89.98-16.996 0-33.592 1-50.189 2.999 93.179-59.786 203.554-94.379 322.127-94.379 386.313 0 597.665 320.128 597.665 597.665 0 9.198-0.2 18.196-0.6 27.194 40.991 29.393 76.583 66.385 104.776 108.575z" />
<glyph unicode="&#xf044;" glyph-name="edit" horiz-adv-x="1025" d="M507.429 274.286l66.286 66.286-86.857 86.857-66.286-66.286v-32h54.857v-54.857h32zM758.857 685.714c-5.143 5.143-13.714 4.571-18.857-0.571l-200-200c-5.143-5.143-5.714-13.714-0.571-18.857s13.714-4.571 18.857 0.571l200 200c5.143 5.143 5.714 13.714 0.571 18.857zM804.571 346.286v-108.571c0-90.857-73.714-164.571-164.571-164.571h-475.429c-90.857 0-164.571 73.714-164.571 164.571v475.429c0 90.857 73.714 164.571 164.571 164.571h475.429c22.857 0 45.714-4.571 66.857-14.286 5.143-2.286 9.143-7.429 10.286-13.143 1.143-6.286-0.571-12-5.143-16.571l-28-28c-5.143-5.143-12-6.857-18.286-4.571-8.571 2.286-17.143 3.429-25.714 3.429h-475.429c-50.286 0-91.429-41.143-91.429-91.429v-475.429c0-50.286 41.143-91.429 91.429-91.429h475.429c50.286 0 91.429 41.143 91.429 91.429v72c0 4.571 1.714 9.143 5.143 12.571l36.571 36.571c5.714 5.714 13.143 6.857 20 4s11.429-9.143 11.429-16.571zM749.714 768l164.571-164.571-384-384h-164.571v164.571zM1003.429 692.571l-52.571-52.571-164.571 164.571 52.571 52.571c21.143 21.143 56.571 21.143 77.714 0l86.857-86.857c21.143-21.143 21.143-56.571 0-77.714z" />
</font>
</defs>
</svg>
